# Blender v2.81 (sub 16) OBJ File: 'knife.blend'
# www.blender.org
mtllib blade.mtl
o knife
v 3.000000 0.000000 0.000000
v 1.773113 123.613480 9.355475
v 3.000000 -0.000006 35.000000
v 2.986259 132.418732 13.160414
v 3.000000 138.341644 17.820261
v 0.407548 102.310883 6.679518
v 0.344385 106.809975 7.660704
v 0.837695 117.168533 8.494524
v 3.000000 143.152039 23.018379
v 3.000000 147.015259 28.758059
v 3.000000 150.000000 35.000023
v -3.000000 -0.000006 35.000000
v -3.000000 0.000000 0.000000
v -3.000000 150.000000 35.000023
v -0.407548 102.310883 6.679518
v -0.349374 106.902863 7.668296
v -0.873193 117.879776 8.559230
v -1.313471 121.411484 8.940100
v -2.254451 125.897415 9.996563
v -2.937280 131.064941 12.327299
v -2.999998 134.737808 14.799717
v -3.000000 137.753006 17.284828
v -3.000000 140.439651 19.889647
v -3.000000 142.784393 22.556719
v -3.000000 144.788116 25.218397
v -3.000000 147.893951 30.363348
vt -7.500000 -1.750000
vt 5.068676 -0.834120
vt -7.500000 1.750000
vt 5.751900 -0.429911
vt 6.334165 0.032024
vt 2.500000 -1.750000
vt 3.433844 -1.489087
vt 4.292603 -1.185242
vt 6.815204 0.551836
vt 7.201526 1.125803
vt 7.500000 1.750000
vt 0.000000 -0.200000
vt 3.500000 -0.200000
vt -0.000000 0.400000
vt 3.500000 0.400000
vt 0.000000 -0.200000
vt 15.000000 -0.200000
vt -0.000000 0.400000
vt 15.000000 0.400000
vt 0.000000 0.400000
vt 0.000000 -0.200000
vt 0.767160 0.400000
vt 0.777684 -0.200000
vt 1.534320 0.400000
vt 1.622142 -0.200000
vt 2.061551 -0.200000
vt 2.301480 0.400000
vt 2.502611 -0.200000
vt 3.068640 0.400000
vt 2.929948 -0.200000
vt 3.345382 -0.200000
vt 3.835800 0.400000
vt 3.751636 -0.200000
vt 4.151306 -0.200000
vt 4.602960 0.400000
vt 4.538139 -0.200000
vt 4.905620 -0.200000
vt 5.370120 0.400000
vt 5.573526 -0.200000
vt 6.137280 0.400000
vt 6.137280 -0.200000
vt 0.000000 -0.200000
vt 10.000000 -0.200000
vt 0.000000 0.400000
vt 10.000000 0.400000
vt -2.500000 -1.750000
vt 7.500000 -1.750000
vt -3.446141 -1.485200
vt -4.385796 -1.147495
vt -4.835443 -0.949351
vt 7.500000 1.750000
vt -5.257196 -0.733516
vt -5.635683 -0.507144
vt -5.973784 -0.270029
vt -6.275300 -0.021519
vt -6.543965 0.238962
vt -6.778439 0.505670
vt -6.978812 0.771837
vt -7.289395 1.286332
vt -7.500000 1.750000
vn 0.9999 0.0107 -0.0102
vn 0.9680 -0.0272 -0.2494
vn 1.0000 0.0076 -0.0061
vn 0.9988 -0.0077 -0.0476
vn 1.0000 -0.0001 -0.0007
vn 0.9968 0.0301 -0.0737
vn 0.1648 0.0746 -0.9835
vn 0.3441 0.0742 -0.9360
vn 1.0000 0.0000 0.0000
vn 0.0000 -1.0000 -0.0000
vn 0.0000 -0.0000 1.0000
vn 0.0001 0.1840 -0.9829
vn 0.0018 0.1836 -0.9830
vn 0.0082 0.1491 -0.9888
vn 0.0089 0.1370 -0.9905
vn 0.0053 0.0970 -0.9953
vn 0.0028 0.1039 -0.9946
vn 0.0090 0.1609 -0.9869
vn 0.0173 0.2595 -0.9656
vn 0.0309 0.3435 -0.9387
vn 0.0136 0.5225 -0.8525
vn 0.0099 0.4829 -0.8756
vn -0.0004 0.5990 -0.8007
vn 0.0009 0.6784 -0.7347
vn 0.0000 0.6667 -0.7454
vn -0.0000 0.7248 -0.6890
vn -0.0000 0.7849 -0.6197
vn -0.0000 0.7767 -0.6299
vn 0.0000 0.8209 -0.5711
vn -0.0000 0.8690 -0.4949
vn 0.0000 0.8873 -0.4613
vn 0.0000 0.9302 -0.3671
vn 0.0000 0.0651 -0.9979
vn -0.9960 0.0307 -0.0841
vn -0.9999 0.0145 -0.0075
vn -0.1725 0.0747 -0.9822
vn -0.2367 0.0746 -0.9687
vn -0.8963 -0.0684 -0.4381
vn -0.9999 0.0105 -0.0085
vn -0.9683 -0.0431 -0.2461
vn -0.9982 -0.0097 -0.0589
vn -1.0000 -0.0008 -0.0051
vn -1.0000 -0.0000 -0.0000
usemtl Steel_-_Satin
s 1
f 1/1/1 2/2/2 3/3/3
f 3/3/3 2/2/2 4/4/4
f 3/3/3 4/4/4 5/5/5
f 6/6/6 7/7/7 1/1/1
f 1/1/1 7/7/7 8/8/8
f 1/1/1 8/8/8 2/2/2
f 5/5/5 9/9/9 3/3/3
f 3/3/3 9/9/9 10/10/9
f 3/3/3 10/10/9 11/11/9
f 12/12/10 13/13/10 3/14/10
f 3/14/10 13/13/10 1/15/10
f 14/16/11 12/17/11 11/18/11
f 11/18/11 12/17/11 3/19/11
f 6/20/12 15/21/13 7/22/14
f 7/22/14 15/21/13 16/23/15
f 7/22/14 16/23/15 8/24/16
f 8/24/16 16/23/15 17/25/17
f 8/24/16 17/25/17 18/26/18
f 8/24/16 18/26/18 2/27/19
f 2/27/19 18/26/18 19/28/20
f 2/27/19 19/28/20 4/29/21
f 4/29/21 19/28/20 20/30/22
f 4/29/21 20/30/22 21/31/23
f 4/29/21 21/31/23 5/32/24
f 5/32/24 21/31/23 22/33/25
f 5/32/24 22/33/25 23/34/26
f 5/32/24 23/34/26 9/35/27
f 9/35/27 23/34/26 24/36/28
f 9/35/27 24/36/28 25/37/29
f 9/35/27 25/37/29 10/38/30
f 10/38/30 25/37/29 26/39/31
f 10/38/30 26/39/31 11/40/32
f 11/40/32 26/39/31 14/41/32
f 13/42/33 15/43/33 1/44/33
f 1/44/33 15/43/33 6/45/33
f 15/46/34 13/47/35 16/48/36
f 16/48/36 13/47/35 17/49/37
f 17/49/37 13/47/35 18/50/38
f 18/50/38 13/47/35 12/51/39
f 18/50/38 12/51/39 19/52/40
f 19/52/40 12/51/39 20/53/41
f 20/53/41 12/51/39 21/54/42
f 21/54/42 12/51/39 22/55/43
f 22/55/43 12/51/39 23/56/43
f 23/56/43 12/51/39 24/57/43
f 24/57/43 12/51/39 25/58/43
f 25/58/43 12/51/39 26/59/43
f 26/59/43 12/51/39 14/60/43
