# Blender v2.81 (sub 16) OBJ File: 'knife.blend'
# www.blender.org
mtllib handle.mtl
v 4.000000 -150.000000 28.999975
v 4.000000 -60.000004 28.999990
v 4.000000 -51.161167 25.338827
v 4.000000 -153.235245 28.574049
v 4.000000 -156.250000 27.325293
v 4.000000 -158.838837 25.338808
v 4.000000 -49.174686 22.749992
v -4.000000 -150.000000 28.999975
v -4.000000 -60.000004 28.999990
v -4.000000 -158.838837 25.338808
v -4.000000 -156.250000 27.325293
v -4.000000 -153.235245 28.574049
v -4.000000 -160.825317 22.749973
v 4.000000 -160.825317 22.749973
v 4.000000 -47.925930 19.735229
v 4.000000 -162.074066 19.735210
v 4.000000 -47.500004 16.499992
v 4.000000 -162.500000 16.499973
v -4.000000 -162.074066 19.735210
v -4.000000 -49.174686 22.749992
v -4.000000 -47.925930 19.735229
v -4.000000 -162.500000 16.499973
v -4.000000 -47.500004 16.499992
v -4.000000 -162.074066 13.264735
v 4.000000 -162.074066 13.264735
v 4.000000 -47.925930 13.264754
v 4.000000 -49.174683 10.249992
v 4.000000 -160.825317 10.249974
v 4.000000 -51.161163 7.661157
v 4.000000 -60.000000 3.999990
v 4.000000 -158.838837 7.661139
v -4.000000 -160.825317 10.249974
v -4.000000 -47.925930 13.264754
v -4.000000 -49.174683 10.249992
v -4.000000 -158.838837 7.661139
v -4.000000 -150.000000 3.999975
v -4.000000 -156.250000 5.674657
v 4.000000 -156.250000 5.674657
v 4.000000 -150.000000 3.999975
v 4.000000 -153.235245 4.425902
v -4.000000 -153.235245 4.425902
v -4.000000 -60.000000 3.999990
v -4.000000 -51.161163 7.661157
v -4.000000 -53.750000 5.674674
v -4.000000 -56.764763 4.425918
v 4.000000 -56.764763 4.425918
v 4.000000 -53.750000 5.674674
v -4.000000 -51.161167 25.338827
v -4.000000 -53.750004 27.325308
v 4.000000 -53.750004 27.325308
v 4.000000 -56.764767 28.574064
v -4.000000 -56.764767 28.574064
vt 9.000000 0.400000
vt 0.000000 0.400000
vt 9.000000 -0.400000
vt -4.500000 1.250000
vt 5.383883 0.883883
vt 4.500000 1.250000
vt 5.582532 0.625000
vt 0.400000 1.963495
vt -0.400000 2.290745
vt -0.400000 1.963495
vt -4.823524 1.207407
vt -5.125000 1.082532
vt -5.383883 0.883883
vt 0.000000 -0.400000
vt -4.500000 1.250000
vt 5.383883 0.883883
vt 4.500000 1.250000
vt 5.125000 1.082532
vt 4.823524 1.207407
vt 0.400000 2.290745
vt 0.400000 2.617994
vt -0.400000 2.617994
vt 0.400000 2.945243
vt -0.400000 2.945243
vt 5.582532 0.625000
vt 0.400000 3.272492
vt -0.400000 3.272492
vt -5.582532 0.625000
vt 5.707407 0.323524
vt -5.707407 0.323524
vt -0.400000 3.599742
vt 5.750000 0.000000
vt -5.750000 0.000000
vt 0.400000 3.599742
vt -0.400000 3.926991
vt -5.582532 0.625000
vt 5.707407 0.323524
vt -5.707407 0.323524
vt 5.750000 0.000000
vt 0.400000 3.926991
vt -5.750000 0.000000
vt 5.707407 -0.323524
vt 0.400000 -3.599742
vt -0.400000 -3.599742
vt 0.400000 -3.926991
vt -0.400000 -3.926991
vt 5.707407 -0.323524
vt -5.707407 -0.323524
vt 5.582532 -0.625000
vt -5.582532 -0.625000
vt -0.400000 -3.272492
vt 5.383883 -0.883883
vt 4.500000 -1.250000
vt -5.383883 -0.883883
vt 0.400000 -3.272492
vt -0.400000 -2.945243
vt -5.707407 -0.323524
vt 5.582532 -0.625000
vt -5.582532 -0.625000
vt 5.383883 -0.883883
vt 0.400000 -2.945243
vt 4.500000 -1.250000
vt 5.125000 -1.082532
vt 0.400000 -2.617994
vt -0.400000 -2.617994
vt -4.500000 -1.250000
vt -5.125000 -1.082532
vt -4.823524 -1.207407
vt -0.400000 -2.290745
vt 0.400000 -2.290745
vt -0.400000 -1.963495
vt 4.823524 -1.207407
vt 0.400000 -1.963495
vt 9.000000 0.400000
vt 0.000000 0.400000
vt 9.000000 -0.400000
vt 0.000000 -0.400000
vt -5.383883 -0.883883
vt -4.500000 -1.250000
vt -5.125000 -1.082532
vt -4.823524 -1.207407
vt 0.400000 -1.636246
vt -0.400000 -1.636246
vt 0.400000 -1.963495
vt -0.400000 -1.963495
vt -0.400000 -1.308997
vt 5.125000 -1.082532
vt 4.823524 -1.207407
vt 0.400000 -1.308997
vt -0.400000 -0.981748
vt 0.400000 -0.981748
vt 0.400000 -0.654498
vt -0.400000 -0.654498
vt 0.400000 -0.327249
vt -0.400000 -0.327249
vt 0.400000 0.000000
vt -0.400000 0.000000
vt 0.400000 0.327249
vt -0.400000 0.327249
vt 0.400000 0.654498
vt -0.400000 0.654498
vt -5.383883 0.883883
vt 0.400000 0.981748
vt -0.400000 0.981748
vt -5.125000 1.082532
vt 0.400000 1.308997
vt -0.400000 1.308997
vt 5.125000 1.082532
vt 4.823524 1.207407
vt -0.400000 1.636246
vt 0.400000 1.636246
vt -0.400000 1.963495
vt 0.400000 1.963495
vt -4.823524 1.207407
vn 0.0000 -0.0000 1.0000
vn 1.0000 0.0000 0.0000
vn 0.0000 -0.2588 0.9659
vn -1.0000 0.0000 0.0000
vn 0.0000 -0.5000 0.8660
vn 0.0000 -0.7071 0.7071
vn 0.0000 -0.8660 0.5000
vn 0.0000 -0.9659 0.2588
vn 0.0000 -1.0000 0.0000
vn 0.0000 -0.9659 -0.2588
vn 0.0000 -0.8660 -0.5000
vn 0.0000 -0.7071 -0.7071
vn 0.0000 -0.5000 -0.8660
vn 0.0000 -0.2588 -0.9659
vn 0.0000 0.0000 -1.0000
vn 0.0000 0.2588 -0.9659
vn 0.0000 0.5000 -0.8660
vn 0.0000 0.7071 -0.7071
vn 0.0000 0.8660 -0.5000
vn 0.0000 0.9659 -0.2588
vn 0.0000 1.0000 0.0000
vn 0.0000 0.9659 0.2588
vn 0.0000 0.8660 0.5000
vn 0.0000 0.7071 0.7071
vn 0.0000 0.5000 0.8660
vn 0.0000 0.2588 0.9659
usemtl Steel_-_Satin
s 1
f 1/1/1 2/2/1 8/3/1
f 1/4/2 3/5/2 2/6/2
f 7/7/2 3/5/2 1/4/2
f 8/8/1 4/9/3 1/10/1
f 4/11/2 5/12/2 1/4/2
f 1/4/2 5/12/2 6/13/2
f 1/4/2 6/13/2 7/7/2
f 8/3/1 2/2/1 9/14/1
f 9/15/4 10/16/4 8/17/4
f 8/17/4 10/16/4 11/18/4
f 8/17/4 11/18/4 12/19/4
f 12/20/3 4/9/3 8/8/1
f 11/21/5 5/22/5 12/20/3
f 12/20/3 5/22/5 4/9/3
f 10/23/6 6/24/6 11/21/5
f 11/21/5 6/24/6 5/22/5
f 13/25/4 10/16/4 9/15/4
f 13/26/7 14/27/7 10/23/6
f 10/23/6 14/27/7 6/24/6
f 7/7/2 14/28/2 15/29/2
f 7/7/2 6/13/2 14/28/2
f 15/29/2 14/28/2 16/30/2
f 13/26/7 16/31/8 14/27/7
f 15/29/2 16/30/2 17/32/2
f 17/32/2 16/30/2 18/33/2
f 19/34/8 18/35/9 16/31/8
f 19/34/8 16/31/8 13/26/7
f 13/25/4 20/36/4 19/37/4
f 19/37/4 20/36/4 21/38/4
f 19/37/4 21/38/4 22/39/4
f 22/40/9 18/35/9 19/34/8
f 22/39/4 21/38/4 23/41/4
f 22/39/4 23/41/4 24/42/4
f 24/43/10 25/44/10 22/45/9
f 22/45/9 25/44/10 18/46/9
f 26/47/2 25/48/2 27/49/2
f 26/47/2 18/33/2 25/48/2
f 27/49/2 25/48/2 28/50/2
f 24/43/10 28/51/11 25/44/10
f 27/49/2 28/50/2 29/52/2
f 29/52/2 28/50/2 30/53/2
f 28/50/2 31/54/2 30/53/2
f 32/55/11 31/56/12 28/51/11
f 32/55/11 28/51/11 24/43/10
f 24/42/4 33/57/4 32/58/4
f 32/58/4 33/57/4 34/59/4
f 32/58/4 34/59/4 35/60/4
f 35/61/12 31/56/12 32/55/11
f 35/60/4 34/59/4 36/62/4
f 35/60/4 36/62/4 37/63/4
f 37/64/13 38/65/13 35/61/12
f 35/61/12 38/65/13 31/56/12
f 39/66/2 38/67/2 40/68/2
f 39/66/2 31/54/2 38/67/2
f 37/64/13 40/69/14 38/65/13
f 41/70/14 39/71/15 40/69/14
f 41/70/14 40/69/14 37/64/13
f 37/63/4 36/62/4 41/72/4
f 36/73/15 39/71/15 41/70/14
f 30/74/15 39/75/15 42/76/15
f 30/53/2 31/54/2 39/66/2
f 42/76/15 39/75/15 36/77/15
f 36/62/4 43/78/4 42/79/4
f 42/79/4 43/78/4 44/80/4
f 42/79/4 44/80/4 45/81/4
f 45/82/16 46/83/16 42/84/15
f 42/84/15 46/83/16 30/85/15
f 45/82/16 47/86/17 46/83/16
f 47/87/2 30/53/2 46/88/2
f 44/89/17 29/90/18 47/86/17
f 29/52/2 30/53/2 47/87/2
f 44/89/17 47/86/17 45/82/16
f 43/91/18 29/90/18 44/89/17
f 34/92/19 27/93/19 43/91/18
f 34/59/4 43/78/4 36/62/4
f 43/91/18 27/93/19 29/90/18
f 33/94/20 26/95/20 34/92/19
f 34/92/19 26/95/20 27/93/19
f 24/42/4 23/41/4 33/57/4
f 23/96/21 17/97/21 33/94/20
f 33/94/20 17/97/21 26/95/20
f 17/32/2 18/33/2 26/47/2
f 21/98/22 15/99/22 23/96/21
f 23/96/21 15/99/22 17/97/21
f 20/100/23 7/101/23 21/98/22
f 21/98/22 7/101/23 15/99/22
f 13/25/4 48/102/4 20/36/4
f 48/103/24 3/104/24 20/100/23
f 20/100/23 3/104/24 7/101/23
f 9/15/4 48/102/4 13/25/4
f 9/15/4 49/105/4 48/102/4
f 49/106/25 50/107/25 48/103/24
f 48/103/24 50/107/25 3/104/24
f 2/6/2 50/108/2 51/109/2
f 2/6/2 3/5/2 50/108/2
f 49/106/25 51/110/26 50/107/25
f 52/111/26 2/112/1 51/110/26
f 52/111/26 51/110/26 49/106/25
f 9/113/1 2/112/1 52/111/26
f 52/114/4 49/105/4 9/15/4
